<svg xmlns="http://www.w3.org/2000/svg" viewBox="0 0 512 512"><rect width="512" height="512" fill="#F7DF1E"/><path d="M324.4,370.8c12.2,19.9,28.1,34.6,56.2,34.6c23.6,0,38.7-11.8,38.7-28.1c0-19.5-15.5-26.4-41.5-37.7l-14.2-6.1c-41.1-17.5-68.4-39.5-68.4-86c0-42.8,32.6-75.4,83.5-75.4c36.3,0,62.3,12.6,81.1,45.7l-44.4,28.5c-9.8-17.5-20.3-24.4-36.7-24.4c-16.7,0-27.3,10.6-27.3,24.4c0,17.1,10.6,24,35,34.6l14.2,6.1c48.4,20.7,75.7,41.9,75.7,89.5c0,51.4-40.3,79.5-94.5,79.5c-53,0-87.2-25.2-104-58.3L324.4,370.8z M179.8,373.8c8.9,15.9,17.1,29.3,36.7,29.3c18.7,0,30.5-7.3,30.5-35.8V195h56.6v173.2c0,58.6-34.3,85.2-84.3,85.2c-45.3,0-71.4-23.4-84.7-51.6L179.8,373.8z"/></svg>